<mxfile host="app.diagrams.net" agent="Mozilla/5.0 (Windows NT 10.0; Win64; x64) AppleWebKit/537.36 (KHTML, like Gecko) Chrome/131.0.0.0 Safari/537.36" version="26.0.6">
  <diagram name="Page-1" id="3VrB5hONj2gFAn1QqN-y">
    <mxGraphModel dx="158" dy="1605" grid="1" gridSize="10" guides="1" tooltips="1" connect="1" arrows="1" fold="1" page="1" pageScale="1" pageWidth="850" pageHeight="1100" math="0" shadow="0">
      <root>
        <mxCell id="0" />
        <mxCell id="1" parent="0" />
        <mxCell id="zBGNd8jJPVtmBsi_LZ6R-2" value="User" style="swimlane;fontStyle=0;childLayout=stackLayout;horizontal=1;startSize=26;fillColor=none;horizontalStack=0;resizeParent=1;resizeParentMax=0;resizeLast=0;collapsible=1;marginBottom=0;whiteSpace=wrap;html=1;" parent="1" vertex="1">
          <mxGeometry x="1440" y="-137" width="140" height="160" as="geometry" />
        </mxCell>
        <mxCell id="zBGNd8jJPVtmBsi_LZ6R-4" value="&lt;div&gt;- userId : int&lt;br&gt;&lt;/div&gt;- name : String&lt;div&gt;- email : String&lt;div&gt;-password : String&lt;/div&gt;&lt;/div&gt;" style="text;strokeColor=default;fillColor=none;align=left;verticalAlign=top;spacingLeft=4;spacingRight=4;overflow=hidden;rotatable=0;points=[[0,0.5],[1,0.5]];portConstraint=eastwest;whiteSpace=wrap;html=1;" parent="zBGNd8jJPVtmBsi_LZ6R-2" vertex="1">
          <mxGeometry y="26" width="140" height="80" as="geometry" />
        </mxCell>
        <mxCell id="zBGNd8jJPVtmBsi_LZ6R-5" value="+ login()&lt;div&gt;+ logout()&lt;/div&gt;&lt;div&gt;+ signup()&lt;/div&gt;" style="text;strokeColor=none;fillColor=none;align=left;verticalAlign=top;spacingLeft=4;spacingRight=4;overflow=hidden;rotatable=0;points=[[0,0.5],[1,0.5]];portConstraint=eastwest;whiteSpace=wrap;html=1;" parent="zBGNd8jJPVtmBsi_LZ6R-2" vertex="1">
          <mxGeometry y="106" width="140" height="54" as="geometry" />
        </mxCell>
        <mxCell id="zBGNd8jJPVtmBsi_LZ6R-21" style="rounded=0;orthogonalLoop=1;jettySize=auto;html=1;exitX=0.5;exitY=0;exitDx=0;exitDy=0;entryX=0.185;entryY=0.996;entryDx=0;entryDy=0;endArrow=block;endFill=0;edgeStyle=orthogonalEdgeStyle;entryPerimeter=0;" parent="1" source="zBGNd8jJPVtmBsi_LZ6R-6" target="zBGNd8jJPVtmBsi_LZ6R-5" edge="1">
          <mxGeometry relative="1" as="geometry">
            <Array as="points">
              <mxPoint x="1240" y="60" />
              <mxPoint x="1466" y="60" />
            </Array>
          </mxGeometry>
        </mxCell>
        <mxCell id="zBGNd8jJPVtmBsi_LZ6R-6" value="JobSeeker" style="swimlane;fontStyle=0;childLayout=stackLayout;horizontal=1;startSize=26;fillColor=none;horizontalStack=0;resizeParent=1;resizeParentMax=0;resizeLast=0;collapsible=1;marginBottom=0;whiteSpace=wrap;html=1;" parent="1" vertex="1">
          <mxGeometry x="1170" y="90" width="140" height="106" as="geometry" />
        </mxCell>
        <mxCell id="zBGNd8jJPVtmBsi_LZ6R-7" value="&lt;div&gt;+ uploadCV()&lt;/div&gt;&lt;div&gt;+ applyForJob()&lt;/div&gt;&lt;div&gt;+ findJob()&lt;/div&gt;&lt;div&gt;+ reviewCV()&lt;/div&gt;" style="text;strokeColor=default;fillColor=none;align=left;verticalAlign=top;spacingLeft=4;spacingRight=4;overflow=hidden;rotatable=0;points=[[0,0.5],[1,0.5]];portConstraint=eastwest;whiteSpace=wrap;html=1;" parent="zBGNd8jJPVtmBsi_LZ6R-6" vertex="1">
          <mxGeometry y="26" width="140" height="80" as="geometry" />
        </mxCell>
        <mxCell id="zBGNd8jJPVtmBsi_LZ6R-9" value="Employer" style="swimlane;fontStyle=0;childLayout=stackLayout;horizontal=1;startSize=26;fillColor=none;horizontalStack=0;resizeParent=1;resizeParentMax=0;resizeLast=0;collapsible=1;marginBottom=0;whiteSpace=wrap;html=1;" parent="1" vertex="1">
          <mxGeometry x="1540" y="90" width="140" height="106" as="geometry" />
        </mxCell>
        <mxCell id="zBGNd8jJPVtmBsi_LZ6R-10" value="&lt;div&gt;+ postJob()&lt;/div&gt;&lt;div&gt;+ editJob()&lt;/div&gt;&lt;div&gt;+ deleteJob()&lt;/div&gt;&lt;div&gt;+ hireFreelancer()&lt;/div&gt;" style="text;strokeColor=default;fillColor=none;align=left;verticalAlign=top;spacingLeft=4;spacingRight=4;overflow=hidden;rotatable=0;points=[[0,0.5],[1,0.5]];portConstraint=eastwest;whiteSpace=wrap;html=1;" parent="zBGNd8jJPVtmBsi_LZ6R-9" vertex="1">
          <mxGeometry y="26" width="140" height="80" as="geometry" />
        </mxCell>
        <mxCell id="zBGNd8jJPVtmBsi_LZ6R-24" style="rounded=0;orthogonalLoop=1;jettySize=auto;html=1;exitX=0.5;exitY=0;exitDx=0;exitDy=0;entryX=0.769;entryY=1.016;entryDx=0;entryDy=0;endArrow=block;endFill=0;edgeStyle=orthogonalEdgeStyle;entryPerimeter=0;" parent="1" source="zBGNd8jJPVtmBsi_LZ6R-12" target="zBGNd8jJPVtmBsi_LZ6R-5" edge="1">
          <mxGeometry relative="1" as="geometry">
            <Array as="points">
              <mxPoint x="1800" y="50" />
              <mxPoint x="1548" y="50" />
            </Array>
          </mxGeometry>
        </mxCell>
        <mxCell id="mht1874FwiakoGQVggqD-4" style="edgeStyle=orthogonalEdgeStyle;rounded=0;orthogonalLoop=1;jettySize=auto;html=1;entryX=0.75;entryY=0;entryDx=0;entryDy=0;endArrow=none;endFill=0;" edge="1" parent="1" source="zBGNd8jJPVtmBsi_LZ6R-12" target="zBGNd8jJPVtmBsi_LZ6R-35">
          <mxGeometry relative="1" as="geometry">
            <Array as="points">
              <mxPoint x="1800" y="230" />
              <mxPoint x="1645" y="230" />
            </Array>
          </mxGeometry>
        </mxCell>
        <mxCell id="zBGNd8jJPVtmBsi_LZ6R-12" value="Freelancer" style="swimlane;fontStyle=0;childLayout=stackLayout;horizontal=1;startSize=26;fillColor=none;horizontalStack=0;resizeParent=1;resizeParentMax=0;resizeLast=0;collapsible=1;marginBottom=0;whiteSpace=wrap;html=1;" parent="1" vertex="1">
          <mxGeometry x="1720" y="90" width="160" height="94" as="geometry" />
        </mxCell>
        <mxCell id="zBGNd8jJPVtmBsi_LZ6R-13" value="- portfolio : String" style="text;strokeColor=default;fillColor=none;align=left;verticalAlign=top;spacingLeft=4;spacingRight=4;overflow=hidden;rotatable=0;points=[[0,0.5],[1,0.5]];portConstraint=eastwest;whiteSpace=wrap;html=1;" parent="zBGNd8jJPVtmBsi_LZ6R-12" vertex="1">
          <mxGeometry y="26" width="160" height="24" as="geometry" />
        </mxCell>
        <mxCell id="zBGNd8jJPVtmBsi_LZ6R-14" value="+ applyForFreelanceJob()&lt;div&gt;+ getHired()&lt;/div&gt;" style="text;strokeColor=none;fillColor=none;align=left;verticalAlign=top;spacingLeft=4;spacingRight=4;overflow=hidden;rotatable=0;points=[[0,0.5],[1,0.5]];portConstraint=eastwest;whiteSpace=wrap;html=1;" parent="zBGNd8jJPVtmBsi_LZ6R-12" vertex="1">
          <mxGeometry y="50" width="160" height="44" as="geometry" />
        </mxCell>
        <mxCell id="zBGNd8jJPVtmBsi_LZ6R-15" value="Admin" style="swimlane;fontStyle=0;childLayout=stackLayout;horizontal=1;startSize=26;fillColor=none;horizontalStack=0;resizeParent=1;resizeParentMax=0;resizeLast=0;collapsible=1;marginBottom=0;whiteSpace=wrap;html=1;" parent="1" vertex="1">
          <mxGeometry x="1350" y="90" width="140" height="150" as="geometry" />
        </mxCell>
        <mxCell id="zBGNd8jJPVtmBsi_LZ6R-16" value="&lt;div&gt;- adminID : int&lt;/div&gt;&lt;div&gt;- name : String&lt;/div&gt;&lt;div&gt;- email : String&lt;/div&gt;" style="text;strokeColor=default;fillColor=none;align=left;verticalAlign=top;spacingLeft=4;spacingRight=4;overflow=hidden;rotatable=0;points=[[0,0.5],[1,0.5]];portConstraint=eastwest;whiteSpace=wrap;html=1;" parent="zBGNd8jJPVtmBsi_LZ6R-15" vertex="1">
          <mxGeometry y="26" width="140" height="54" as="geometry" />
        </mxCell>
        <mxCell id="zBGNd8jJPVtmBsi_LZ6R-17" value="+ manageUsers()&lt;div&gt;+ manageJobs()&lt;/div&gt;&lt;div&gt;+ generateReports()&lt;/div&gt;" style="text;strokeColor=none;fillColor=none;align=left;verticalAlign=top;spacingLeft=4;spacingRight=4;overflow=hidden;rotatable=0;points=[[0,0.5],[1,0.5]];portConstraint=eastwest;whiteSpace=wrap;html=1;" parent="zBGNd8jJPVtmBsi_LZ6R-15" vertex="1">
          <mxGeometry y="80" width="140" height="70" as="geometry" />
        </mxCell>
        <mxCell id="zBGNd8jJPVtmBsi_LZ6R-22" style="rounded=0;orthogonalLoop=1;jettySize=auto;html=1;exitX=0.5;exitY=0;exitDx=0;exitDy=0;entryX=0.368;entryY=1.011;entryDx=0;entryDy=0;entryPerimeter=0;endArrow=block;endFill=0;edgeStyle=orthogonalEdgeStyle;" parent="1" source="zBGNd8jJPVtmBsi_LZ6R-15" target="zBGNd8jJPVtmBsi_LZ6R-5" edge="1">
          <mxGeometry relative="1" as="geometry">
            <Array as="points">
              <mxPoint x="1420" y="70" />
              <mxPoint x="1492" y="70" />
              <mxPoint x="1492" y="40" />
              <mxPoint x="1492" y="40" />
            </Array>
          </mxGeometry>
        </mxCell>
        <mxCell id="zBGNd8jJPVtmBsi_LZ6R-23" style="rounded=0;orthogonalLoop=1;jettySize=auto;html=1;exitX=0.5;exitY=0;exitDx=0;exitDy=0;endArrow=block;endFill=0;edgeStyle=orthogonalEdgeStyle;entryX=0.563;entryY=1.03;entryDx=0;entryDy=0;entryPerimeter=0;" parent="1" source="zBGNd8jJPVtmBsi_LZ6R-9" target="zBGNd8jJPVtmBsi_LZ6R-5" edge="1">
          <mxGeometry relative="1" as="geometry">
            <mxPoint x="1571" y="30" as="targetPoint" />
            <Array as="points">
              <mxPoint x="1610" y="70" />
              <mxPoint x="1519" y="70" />
              <mxPoint x="1519" y="50" />
            </Array>
          </mxGeometry>
        </mxCell>
        <mxCell id="zBGNd8jJPVtmBsi_LZ6R-35" value="Job" style="swimlane;fontStyle=0;childLayout=stackLayout;horizontal=1;startSize=26;fillColor=none;horizontalStack=0;resizeParent=1;resizeParentMax=0;resizeLast=0;collapsible=1;marginBottom=0;whiteSpace=wrap;html=1;" parent="1" vertex="1">
          <mxGeometry x="1540" y="290" width="140" height="160" as="geometry" />
        </mxCell>
        <mxCell id="zBGNd8jJPVtmBsi_LZ6R-36" value="&lt;div&gt;- jobID : int&lt;/div&gt;&lt;div&gt;- title : String&lt;/div&gt;&lt;div&gt;- description : String&lt;/div&gt;&lt;div&gt;- requirements : String&lt;/div&gt;&lt;div&gt;- salary : float&lt;/div&gt;&lt;div&gt;- categoryID: id&lt;/div&gt;" style="text;strokeColor=default;fillColor=none;align=left;verticalAlign=top;spacingLeft=4;spacingRight=4;overflow=hidden;rotatable=0;points=[[0,0.5],[1,0.5]];portConstraint=eastwest;whiteSpace=wrap;html=1;" parent="zBGNd8jJPVtmBsi_LZ6R-35" vertex="1">
          <mxGeometry y="26" width="140" height="104" as="geometry" />
        </mxCell>
        <mxCell id="zBGNd8jJPVtmBsi_LZ6R-37" value="+ apply()" style="text;strokeColor=none;fillColor=none;align=left;verticalAlign=top;spacingLeft=4;spacingRight=4;overflow=hidden;rotatable=0;points=[[0,0.5],[1,0.5]];portConstraint=eastwest;whiteSpace=wrap;html=1;" parent="zBGNd8jJPVtmBsi_LZ6R-35" vertex="1">
          <mxGeometry y="130" width="140" height="30" as="geometry" />
        </mxCell>
        <mxCell id="zBGNd8jJPVtmBsi_LZ6R-38" value="CV" style="swimlane;fontStyle=0;childLayout=stackLayout;horizontal=1;startSize=26;fillColor=none;horizontalStack=0;resizeParent=1;resizeParentMax=0;resizeLast=0;collapsible=1;marginBottom=0;whiteSpace=wrap;html=1;" parent="1" vertex="1">
          <mxGeometry x="1132" y="292" width="140" height="130" as="geometry" />
        </mxCell>
        <mxCell id="zBGNd8jJPVtmBsi_LZ6R-39" value="&lt;div&gt;- cvID : int&lt;/div&gt;&lt;div&gt;- userID : int&lt;/div&gt;&lt;div&gt;- filePath : String&lt;/div&gt;&lt;div&gt;- reviewStatus : String&lt;/div&gt;" style="text;strokeColor=default;fillColor=none;align=left;verticalAlign=top;spacingLeft=4;spacingRight=4;overflow=hidden;rotatable=0;points=[[0,0.5],[1,0.5]];portConstraint=eastwest;whiteSpace=wrap;html=1;" parent="zBGNd8jJPVtmBsi_LZ6R-38" vertex="1">
          <mxGeometry y="26" width="140" height="64" as="geometry" />
        </mxCell>
        <mxCell id="zBGNd8jJPVtmBsi_LZ6R-40" value="+ upload()&lt;div&gt;+ review()&lt;/div&gt;" style="text;strokeColor=none;fillColor=none;align=left;verticalAlign=top;spacingLeft=4;spacingRight=4;overflow=hidden;rotatable=0;points=[[0,0.5],[1,0.5]];portConstraint=eastwest;whiteSpace=wrap;html=1;" parent="zBGNd8jJPVtmBsi_LZ6R-38" vertex="1">
          <mxGeometry y="90" width="140" height="40" as="geometry" />
        </mxCell>
        <mxCell id="zBGNd8jJPVtmBsi_LZ6R-41" value="JobApplication" style="swimlane;fontStyle=0;childLayout=stackLayout;horizontal=1;startSize=26;fillColor=none;horizontalStack=0;resizeParent=1;resizeParentMax=0;resizeLast=0;collapsible=1;marginBottom=0;whiteSpace=wrap;html=1;" parent="1" vertex="1">
          <mxGeometry x="1300" y="290" width="140" height="140" as="geometry" />
        </mxCell>
        <mxCell id="zBGNd8jJPVtmBsi_LZ6R-42" value="&lt;div&gt;- applicationID : int&lt;/div&gt;&lt;div&gt;- jobID : int&lt;/div&gt;&lt;div&gt;- userID : int&lt;/div&gt;&lt;div&gt;- status : String&lt;/div&gt;&lt;div&gt;- dateApplied : Date&lt;/div&gt;" style="text;strokeColor=default;fillColor=none;align=left;verticalAlign=top;spacingLeft=4;spacingRight=4;overflow=hidden;rotatable=0;points=[[0,0.5],[1,0.5]];portConstraint=eastwest;whiteSpace=wrap;html=1;" parent="zBGNd8jJPVtmBsi_LZ6R-41" vertex="1">
          <mxGeometry y="26" width="140" height="84" as="geometry" />
        </mxCell>
        <mxCell id="zBGNd8jJPVtmBsi_LZ6R-43" value="+ updateStatus()" style="text;strokeColor=none;fillColor=none;align=left;verticalAlign=top;spacingLeft=4;spacingRight=4;overflow=hidden;rotatable=0;points=[[0,0.5],[1,0.5]];portConstraint=eastwest;whiteSpace=wrap;html=1;" parent="zBGNd8jJPVtmBsi_LZ6R-41" vertex="1">
          <mxGeometry y="110" width="140" height="30" as="geometry" />
        </mxCell>
        <mxCell id="zBGNd8jJPVtmBsi_LZ6R-47" style="rounded=0;orthogonalLoop=1;jettySize=auto;html=1;exitX=0.5;exitY=0;exitDx=0;exitDy=0;endArrow=none;endFill=0;entryX=0.236;entryY=1.005;entryDx=0;entryDy=0;entryPerimeter=0;endSize=16;startArrow=diamondThin;startFill=1;startSize=16;" parent="1" source="zBGNd8jJPVtmBsi_LZ6R-38" target="zBGNd8jJPVtmBsi_LZ6R-7" edge="1">
          <mxGeometry relative="1" as="geometry">
            <mxPoint x="1202" y="210" as="targetPoint" />
          </mxGeometry>
        </mxCell>
        <mxCell id="zBGNd8jJPVtmBsi_LZ6R-49" style="rounded=0;orthogonalLoop=1;jettySize=auto;html=1;entryX=0.484;entryY=0.998;entryDx=0;entryDy=0;entryPerimeter=0;endArrow=none;endFill=0;exitX=0.5;exitY=0;exitDx=0;exitDy=0;edgeStyle=orthogonalEdgeStyle;" parent="1" source="zBGNd8jJPVtmBsi_LZ6R-41" target="zBGNd8jJPVtmBsi_LZ6R-7" edge="1">
          <mxGeometry relative="1" as="geometry">
            <Array as="points">
              <mxPoint x="1370" y="260" />
              <mxPoint x="1238" y="260" />
            </Array>
          </mxGeometry>
        </mxCell>
        <mxCell id="zBGNd8jJPVtmBsi_LZ6R-53" style="rounded=0;orthogonalLoop=1;jettySize=auto;html=1;exitX=0.5;exitY=0;exitDx=0;exitDy=0;endArrow=none;endFill=0;startArrow=block;startFill=0;" parent="1" source="zBGNd8jJPVtmBsi_LZ6R-35" target="zBGNd8jJPVtmBsi_LZ6R-10" edge="1">
          <mxGeometry relative="1" as="geometry" />
        </mxCell>
        <mxCell id="mht1874FwiakoGQVggqD-3" style="edgeStyle=orthogonalEdgeStyle;rounded=0;orthogonalLoop=1;jettySize=auto;html=1;entryX=-0.009;entryY=0.395;entryDx=0;entryDy=0;entryPerimeter=0;endArrow=diamondThin;endFill=1;endSize=16;" edge="1" parent="1" source="zBGNd8jJPVtmBsi_LZ6R-42" target="zBGNd8jJPVtmBsi_LZ6R-36">
          <mxGeometry relative="1" as="geometry" />
        </mxCell>
        <mxCell id="mht1874FwiakoGQVggqD-5" value="1" style="text;html=1;align=center;verticalAlign=middle;resizable=0;points=[];autosize=1;strokeColor=none;fillColor=none;" vertex="1" parent="1">
          <mxGeometry x="1443" y="18" width="30" height="30" as="geometry" />
        </mxCell>
        <mxCell id="mht1874FwiakoGQVggqD-6" value="1" style="text;html=1;align=center;verticalAlign=middle;resizable=0;points=[];autosize=1;strokeColor=none;fillColor=none;" vertex="1" parent="1">
          <mxGeometry x="1414" y="66" width="30" height="30" as="geometry" />
        </mxCell>
        <mxCell id="mht1874FwiakoGQVggqD-7" value="1" style="text;html=1;align=center;verticalAlign=middle;resizable=0;points=[];autosize=1;strokeColor=none;fillColor=none;" vertex="1" parent="1">
          <mxGeometry x="1469" y="16" width="30" height="30" as="geometry" />
        </mxCell>
        <mxCell id="mht1874FwiakoGQVggqD-8" value="1" style="text;html=1;align=center;verticalAlign=middle;resizable=0;points=[];autosize=1;strokeColor=none;fillColor=none;" vertex="1" parent="1">
          <mxGeometry x="1512" y="17" width="30" height="30" as="geometry" />
        </mxCell>
        <mxCell id="mht1874FwiakoGQVggqD-10" value="1" style="text;html=1;align=center;verticalAlign=middle;resizable=0;points=[];autosize=1;strokeColor=none;fillColor=none;" vertex="1" parent="1">
          <mxGeometry x="1540" y="18" width="30" height="30" as="geometry" />
        </mxCell>
        <mxCell id="mht1874FwiakoGQVggqD-11" value="1" style="text;html=1;align=center;verticalAlign=middle;resizable=0;points=[];autosize=1;strokeColor=none;fillColor=none;" vertex="1" parent="1">
          <mxGeometry x="1235" y="68" width="30" height="30" as="geometry" />
        </mxCell>
        <mxCell id="mht1874FwiakoGQVggqD-12" value="1" style="text;html=1;align=center;verticalAlign=middle;resizable=0;points=[];autosize=1;strokeColor=none;fillColor=none;" vertex="1" parent="1">
          <mxGeometry x="1605" y="67" width="30" height="30" as="geometry" />
        </mxCell>
        <mxCell id="mht1874FwiakoGQVggqD-13" value="1" style="text;html=1;align=center;verticalAlign=middle;resizable=0;points=[];autosize=1;strokeColor=none;fillColor=none;" vertex="1" parent="1">
          <mxGeometry x="1792" y="65" width="30" height="30" as="geometry" />
        </mxCell>
        <mxCell id="mht1874FwiakoGQVggqD-14" value="1" style="text;html=1;align=center;verticalAlign=middle;resizable=0;points=[];autosize=1;strokeColor=none;fillColor=none;" vertex="1" parent="1">
          <mxGeometry x="1194" y="191" width="30" height="30" as="geometry" />
        </mxCell>
        <mxCell id="mht1874FwiakoGQVggqD-15" value="0..*" style="text;html=1;align=center;verticalAlign=middle;resizable=0;points=[];autosize=1;strokeColor=none;fillColor=none;" vertex="1" parent="1">
          <mxGeometry x="1200" y="268" width="40" height="30" as="geometry" />
        </mxCell>
        <mxCell id="mht1874FwiakoGQVggqD-16" value="1" style="text;html=1;align=center;verticalAlign=middle;resizable=0;points=[];autosize=1;strokeColor=none;fillColor=none;" vertex="1" parent="1">
          <mxGeometry x="1233" y="191" width="30" height="30" as="geometry" />
        </mxCell>
        <mxCell id="mht1874FwiakoGQVggqD-17" value="0..*" style="text;html=1;align=center;verticalAlign=middle;resizable=0;points=[];autosize=1;strokeColor=none;fillColor=none;" vertex="1" parent="1">
          <mxGeometry x="1364" y="263" width="40" height="30" as="geometry" />
        </mxCell>
        <mxCell id="mht1874FwiakoGQVggqD-18" value="1" style="text;html=1;align=center;verticalAlign=middle;resizable=0;points=[];autosize=1;strokeColor=none;fillColor=none;" vertex="1" parent="1">
          <mxGeometry x="1602" y="191" width="30" height="30" as="geometry" />
        </mxCell>
        <mxCell id="mht1874FwiakoGQVggqD-19" value="0..*" style="text;html=1;align=center;verticalAlign=middle;resizable=0;points=[];autosize=1;strokeColor=none;fillColor=none;" vertex="1" parent="1">
          <mxGeometry x="1601" y="257" width="40" height="30" as="geometry" />
        </mxCell>
        <mxCell id="mht1874FwiakoGQVggqD-20" value="1" style="text;html=1;align=center;verticalAlign=middle;resizable=0;points=[];autosize=1;strokeColor=none;fillColor=none;" vertex="1" parent="1">
          <mxGeometry x="1775" y="178" width="30" height="30" as="geometry" />
        </mxCell>
        <mxCell id="mht1874FwiakoGQVggqD-21" value="0..*" style="text;html=1;align=center;verticalAlign=middle;resizable=0;points=[];autosize=1;strokeColor=none;fillColor=none;" vertex="1" parent="1">
          <mxGeometry x="1638" y="267" width="40" height="30" as="geometry" />
        </mxCell>
      </root>
    </mxGraphModel>
  </diagram>
</mxfile>
